HIERARCHY
ROOT Model
{
	OFFSET 0 0 0
	CHANNELS 6 Xposition Yposition Zposition Zrotation Xrotation Yrotation
	JOINT Model1
	{
		OFFSET 0 -2.25479 2.99383
		CHANNELS 3 Zrotation Xrotation Yrotation
		JOINT Model2
		{
			OFFSET 12.111 0 0
			CHANNELS 3 Zrotation Xrotation Yrotation
			JOINT Model3
			{
				OFFSET 11.5502 0 0
				CHANNELS 3 Zrotation Xrotation Yrotation
				JOINT Model4
				{
					OFFSET 11.781 0 0
					CHANNELS 3 Zrotation Xrotation Yrotation
					JOINT Model5
					{
						OFFSET 20.0601 0 0
						CHANNELS 3 Zrotation Xrotation Yrotation
						JOINT Model6
						{
							OFFSET 11.1962 0 0
							CHANNELS 3 Zrotation Xrotation Yrotation
							End Site
							{
								OFFSET 0 0 0
							}
						}
					}
					JOINT Model7
					{
						OFFSET 10.8223 0.417534 3.51114
						CHANNELS 3 Zrotation Xrotation Yrotation
						JOINT Model8
						{
							OFFSET -6.07943 0 0
							CHANNELS 3 Zrotation Xrotation Yrotation
							JOINT Model9
							{
								OFFSET -0.277412 10.39 -0.0512466
								CHANNELS 3 Zrotation Xrotation Yrotation
								JOINT Model10
								{
									OFFSET -3.4391 -0.282043 1.86678
									CHANNELS 3 Zrotation Xrotation Yrotation
									JOINT Model11
									{
										OFFSET 13.0269 0 0
										CHANNELS 3 Zrotation Xrotation Yrotation
										JOINT Model12
										{
											OFFSET 10.8866 0 0
											CHANNELS 3 Zrotation Xrotation Yrotation
											JOINT Model13
											{
												OFFSET 16.7317 0 0
												CHANNELS 3 Zrotation Xrotation Yrotation
												JOINT Model14
												{
													OFFSET 11.8292 0 0
													CHANNELS 3 Zrotation Xrotation Yrotation
													JOINT Model15
													{
														OFFSET 4.82751 -3.73566 -0.836517
														CHANNELS 3 Zrotation Xrotation Yrotation
														JOINT Model16
														{
															OFFSET 3.75311 -0.0582886 -0.0186462
															CHANNELS 3 Zrotation Xrotation Yrotation
															JOINT Model17
															{
																OFFSET 2.88689 0.0192337 0.014801
																CHANNELS 3 Zrotation Xrotation Yrotation
																End Site
																{
																	OFFSET 0 0 0
																}
															}
														}
													}
													JOINT Model18
													{
														OFFSET 9.72197 -3.06458 0.23877
														CHANNELS 3 Zrotation Xrotation Yrotation
														JOINT Model19
														{
															OFFSET 4.61131 0 0
															CHANNELS 3 Zrotation Xrotation Yrotation
															JOINT Model20
															{
																OFFSET 2.8969 -7.62939e-006 0
																CHANNELS 3 Zrotation Xrotation Yrotation
																End Site
																{
																	OFFSET 0 0 0
																}
															}
														}
													}
													JOINT Model21
													{
														OFFSET 9.54431 -0.745064 0.588936
														CHANNELS 3 Zrotation Xrotation Yrotation
														JOINT Model22
														{
															OFFSET 5.33978 0 0
															CHANNELS 3 Zrotation Xrotation Yrotation
															JOINT Model23
															{
																OFFSET 3.03619 7.62939e-006 0
																CHANNELS 3 Zrotation Xrotation Yrotation
																End Site
																{
																	OFFSET 0 0 0
																}
															}
														}
													}
													JOINT Model24
													{
														OFFSET 9.47758 1.51286 0.485123
														CHANNELS 3 Zrotation Xrotation Yrotation
														JOINT Model25
														{
															OFFSET 4.96136 7.62939e-006 0
															CHANNELS 3 Zrotation Xrotation Yrotation
															JOINT Model26
															{
																OFFSET 2.51965 0 0
																CHANNELS 3 Zrotation Xrotation Yrotation
																End Site
																{
																	OFFSET 0 0 0
																}
															}
														}
													}
													JOINT Model27
													{
														OFFSET 9.34247 3.34117 -0.239281
														CHANNELS 3 Zrotation Xrotation Yrotation
														JOINT Model28
														{
															OFFSET 3.28259 2.28882e-005 0
															CHANNELS 3 Zrotation Xrotation Yrotation
															JOINT Model29
															{
																OFFSET 2.1292 0 0
																CHANNELS 3 Zrotation Xrotation Yrotation
																End Site
																{
																	OFFSET 0 0 0
																}
															}
														}
													}
												}
											}
										}
									}
								}
							}
						}
					}
					JOINT Model30
					{
						OFFSET 10.8223 0.4179 -3.51107
						CHANNELS 3 Zrotation Xrotation Yrotation
						JOINT Model31
						{
							OFFSET 6.07944 0 0
							CHANNELS 3 Zrotation Xrotation Yrotation
							JOINT Model32
							{
								OFFSET 0.27742 -10.39 0.0512466
								CHANNELS 3 Zrotation Xrotation Yrotation
								JOINT Model33
								{
									OFFSET 3.4391 0.282043 -1.86678
									CHANNELS 3 Zrotation Xrotation Yrotation
									JOINT Model34
									{
										OFFSET -13.0269 0 0
										CHANNELS 3 Zrotation Xrotation Yrotation
										JOINT Model35
										{
											OFFSET -10.8866 0 0
											CHANNELS 3 Zrotation Xrotation Yrotation
											JOINT Model36
											{
												OFFSET -16.7317 0 0
												CHANNELS 3 Zrotation Xrotation Yrotation
												JOINT Model37
												{
													OFFSET -11.8292 0 0
													CHANNELS 3 Zrotation Xrotation Yrotation
													JOINT Model38
													{
														OFFSET -4.82751 3.73566 0.836517
														CHANNELS 3 Zrotation Xrotation Yrotation
														JOINT Model39
														{
															OFFSET -3.75311 0.0582886 0.0186462
															CHANNELS 3 Zrotation Xrotation Yrotation
															JOINT Model40
															{
																OFFSET -2.88688 -0.0192337 -0.014801
																CHANNELS 3 Zrotation Xrotation Yrotation
																End Site
																{
																	OFFSET 0 0 0
																}
															}
														}
													}
													JOINT Model41
													{
														OFFSET -9.72197 3.06459 -0.23877
														CHANNELS 3 Zrotation Xrotation Yrotation
														JOINT Model42
														{
															OFFSET -4.6113 0 0
															CHANNELS 3 Zrotation Xrotation Yrotation
															JOINT Model43
															{
																OFFSET -2.8969 0 0
																CHANNELS 3 Zrotation Xrotation Yrotation
																End Site
																{
																	OFFSET 0 0 0
																}
															}
														}
													}
													JOINT Model44
													{
														OFFSET -9.5443 0.745064 -0.588936
														CHANNELS 3 Zrotation Xrotation Yrotation
														JOINT Model45
														{
															OFFSET -5.33978 0 0
															CHANNELS 3 Zrotation Xrotation Yrotation
															JOINT Model46
															{
																OFFSET -3.03619 -1.52588e-005 0
																CHANNELS 3 Zrotation Xrotation Yrotation
																End Site
																{
																	OFFSET 0 0 0
																}
															}
														}
													}
													JOINT Model47
													{
														OFFSET -9.47759 -1.51286 -0.485123
														CHANNELS 3 Zrotation Xrotation Yrotation
														JOINT Model48
														{
															OFFSET -4.96136 -1.52588e-005 0
															CHANNELS 3 Zrotation Xrotation Yrotation
															JOINT Model49
															{
																OFFSET -2.51966 0 0
																CHANNELS 3 Zrotation Xrotation Yrotation
																End Site
																{
																	OFFSET 0 0 0
																}
															}
														}
													}
													JOINT Model50
													{
														OFFSET -9.34246 -3.34118 0.239281
														CHANNELS 3 Zrotation Xrotation Yrotation
														JOINT Model51
														{
															OFFSET -3.2826 -2.28882e-005 0
															CHANNELS 3 Zrotation Xrotation Yrotation
															JOINT Model52
															{
																OFFSET -2.1292 0 0
																CHANNELS 3 Zrotation Xrotation Yrotation
																End Site
																{
																	OFFSET 0 0 0
																}
															}
														}
													}
												}
											}
										}
									}
								}
							}
						}
					}
				}
			}
		}
	}
	JOINT Model53
	{
		OFFSET 4.38026 -2.14632 -1.11516
		CHANNELS 3 Zrotation Xrotation Yrotation
		JOINT Model54
		{
			OFFSET 0 0 4.94999
			CHANNELS 3 Zrotation Xrotation Yrotation
			JOINT Model55
			{
				OFFSET 18.5642 0 0
				CHANNELS 3 Zrotation Xrotation Yrotation
				JOINT Model56
				{
					OFFSET 21.2884 0 1.52588e-005
					CHANNELS 3 Zrotation Xrotation Yrotation
					JOINT Model57
					{
						OFFSET 30.261 0 0
						CHANNELS 3 Zrotation Xrotation Yrotation
						JOINT Model58
						{
							OFFSET 11.7259 0 0
							CHANNELS 3 Zrotation Xrotation Yrotation
							JOINT Model59
							{
								OFFSET 10.682 0 0
								CHANNELS 3 Zrotation Xrotation Yrotation
								End Site
								{
									OFFSET 0 0 0
								}
							}
						}
					}
				}
			}
		}
	}
	JOINT Model60
	{
		OFFSET -4.38026 -2.14632 -1.11516
		CHANNELS 3 Zrotation Xrotation Yrotation
		JOINT Model61
		{
			OFFSET 0 0 -4.94999
			CHANNELS 3 Zrotation Xrotation Yrotation
			JOINT Model62
			{
				OFFSET -18.5642 0 0
				CHANNELS 3 Zrotation Xrotation Yrotation
				JOINT Model63
				{
					OFFSET -21.2884 0 -1.52588e-005
					CHANNELS 3 Zrotation Xrotation Yrotation
					JOINT Model64
					{
						OFFSET -30.261 0 0
						CHANNELS 3 Zrotation Xrotation Yrotation
						JOINT Model65
						{
							OFFSET -11.7259 0 0
							CHANNELS 3 Zrotation Xrotation Yrotation
							JOINT Model66
							{
								OFFSET -10.682 0 0
								CHANNELS 3 Zrotation Xrotation Yrotation
								End Site
								{
									OFFSET 0 0 0
								}
							}
						}
					}
				}
			}
		}
	}
}
MOTION
Frames: 4
Frame Time: 0.033333
99.5649 163.611 -190.723 1.90152 -37.5297 15.7882 -180 4.29621e-031 -90 2.64387 0.869124 0.236423 5.28506 1.74784 0.432484 5.28506 1.74828 0.432444 21.0668 -2.08881 -1.848 -9.22999 -4.43535 5.27782 120.092 75.5343 58.4939 -5.43846 0.71253 1.51937 -167.277 84.4999 48.8109 -168.571 -12.6877 -6.08473 7.9713e-006 10.1242 3.14564e-005 -37.1628 -2.30423 0.36834 4.84848e-007 -4.0289 3.80038e-007 2.33071 -0.106936 -5.2532 -72.0648 39.0385 39.3397 33.3638 2.10362 14.835 0.588947 0.308273 6.35287 -99.6409 81.413 100.35 -0.0181409 2.77884e-005 -0.117315 -0.124139 0.00241113 -0.799296 -79.8382 79.5773 80.5374 -0.000225755 -0.000220913 2.21895e-005 -0.000956197 0.000122908 -2.73275e-005 -66.7416 80.4058 67.2171 -0.00043711 1.59554e-005 -2.73265e-005 -0.000136574 -0.000109278 -5.46494e-005 -6.42159 81.2158 8.01779 -0.000218544 1.69106e-005 0.000212132 0.000901614 -0.000184798 -0.000218577 -59.9282 75.5373 58.5147 16.7243 -0.551466 -2.5405 -167.277 84.4999 48.8109 122.19 -1.54024 -65.9311 1.17451e-005 -8.80082 3.4724e-005 -89.735 7.18542 0.613949 -2.23184e-006 10.349 8.04585e-007 7.80289 -2.93864 -41.2237 -72.0648 39.0385 39.3397 33.3638 2.10361 14.835 0.588946 0.308273 6.35287 -99.6409 81.413 100.35 -0.0181409 3.0077e-005 -0.117315 -0.124139 0.00241113 -0.799296 -79.8382 79.5773 80.5374 -0.000260655 -0.000218567 2.35667e-005 -0.000956238 0.000122995 -2.73258e-005 -66.7416 80.4058 67.2171 -0.000437141 1.488e-005 -2.73243e-005 -0.000136616 -0.000109285 -5.46463e-005 -6.42159 81.2158 8.01779 -0.000218576 1.95771e-005 0.000212293 0.00090157 -0.000191248 -0.000218571 0.000811311 0.56661 89.91 -55.2597 -0.38827 -36.125 3.1752e-007 2.12928 -9.0145e-010 25.4646 -1.8566 0.107129 -1.55342e-008 -2.83158 -1.5145e-008 -68.4759 -19.9008 9.70752 -36.9832 -1.09446 0.537246 -180 -0.566579 -90.09 -80.1413 2.59323 -12.4592 7.22035e-007 0.783546 -3.75763e-008 41.0833 -3.36142 -0.0052512 5.45135e-007 -5.11942 3.31809e-007 -58.4593 -15.6706 9.62996 -35.4934 -0.0014368 -0.0181188 
96.5813 162.495 -188.738 2.52774 -38.0149 15.7014 -180 4.29621e-031 -90 2.65052 0.68897 0.369603 5.29714 1.39414 0.706614 5.29714 1.39457 0.706574 21.3344 -2.10129 -1.40415 -9.08621 -4.67346 5.90273 120.092 75.5343 58.4939 -5.55058 0.537815 1.47672 -167.277 84.4999 48.8109 -166.932 -11.0866 -3.87579 7.20383e-006 11.4942 3.16004e-005 -36.3393 -2.30962 0.361321 4.84848e-007 -4.02887 3.80038e-007 2.66201 -0.103936 -4.47106 -72.0648 39.0385 39.3397 33.3638 2.10362 14.835 0.588947 0.308273 6.35287 -99.6409 81.413 100.35 -0.0181409 2.77884e-005 -0.117315 -0.124139 0.00241113 -0.799296 -79.8382 79.5773 80.5374 -0.000225755 -0.000220913 2.21895e-005 -0.000956197 0.000122908 -2.73275e-005 -66.7416 80.4058 67.2171 -0.00043711 1.59554e-005 -2.73265e-005 -0.000136574 -0.000109278 -5.46494e-005 -6.42159 81.2158 8.01779 -0.000218544 1.69106e-005 0.000212132 0.000901614 -0.000184798 -0.000218577 -59.9282 75.5373 58.5147 16.6446 -0.683732 -2.54944 -167.277 84.4999 48.8109 121.92 -0.839239 -65.7245 1.13111e-005 -8.09196 3.46603e-005 -89.1962 7.27618 0.614121 -2.23367e-006 10.4772 8.04916e-007 8.02271 -3.0335 -41.3716 -72.0648 39.0385 39.3397 33.3638 2.10361 14.835 0.588946 0.308273 6.35287 -99.6409 81.413 100.35 -0.0181409 3.0077e-005 -0.117315 -0.124139 0.00241113 -0.799296 -79.8382 79.5773 80.5374 -0.000260655 -0.000218567 2.35667e-005 -0.000956238 0.000122995 -2.73258e-005 -66.7416 80.4058 67.2171 -0.000437141 1.488e-005 -2.73243e-005 -0.000136616 -0.000109285 -5.46463e-005 -6.42159 81.2158 8.01779 -0.000218576 1.95771e-005 0.000212293 0.00090157 -0.000191248 -0.000218571 0.000811311 0.56661 89.91 -53.0457 -0.938205 -37.3599 3.17526e-007 2.52495 -9.01703e-010 24.1679 -2.94184 0.194006 -1.5965e-008 -4.45668 -1.51724e-008 -67.865 -17.3533 8.47534 -38.3753 -1.83456 0.41174 -180 -0.566579 -90.09 -83.1919 1.19282 -12.6371 7.20283e-007 -1.88759 -3.75932e-008 50.1491 -1.47321 -0.00612088 5.28812e-007 -2.30195 3.30753e-007 -65.3305 -13.531 6.87725 -35.7453 0.675583 -0.0997366 
94.0451 162.294 -187.056 -0.0354451 -38.2188 14.8555 -180 4.29621e-031 -90 2.71426 0.908653 0.706109 5.41818 1.84932 1.36854 5.41819 1.84975 1.36849 20.3277 -2.11614 -1.24892 -9.14503 -4.75597 6.20773 120.092 75.5343 58.4939 -5.85535 0.121492 1.38024 -167.277 84.4999 48.8109 -165.814 -9.76266 -0.509419 7.1914e-006 11.5163 3.16029e-005 -36.9243 -0.510238 0.365936 4.66984e-007 -1.33542 3.79202e-007 2.73076 -0.0516007 -2.16466 -72.0648 39.0385 39.3397 33.3638 2.10362 14.835 0.588947 0.308273 6.35287 -99.6409 81.413 100.35 -0.0181409 2.77884e-005 -0.117315 -0.124139 0.00241113 -0.799296 -79.8382 79.5773 80.5374 -0.000225755 -0.000220913 2.21895e-005 -0.000956197 0.000122908 -2.73275e-005 -66.7416 80.4058 67.2171 -0.00043711 1.59554e-005 -2.73265e-005 -0.000136574 -0.000109278 -5.46494e-005 -6.42159 81.2158 8.01779 -0.000218544 1.69106e-005 0.000212132 0.000901614 -0.000184798 -0.000218577 -59.9282 75.5373 58.5147 16.8035 -1.2185 -2.65953 -167.277 84.4999 48.8109 121.374 -0.955492 -65.6028 1.17232e-005 -8.76511 3.47207e-005 -89.6106 7.06621 0.613881 -2.22926e-006 10.1683 8.04126e-007 7.40186 -2.75724 -40.8166 -72.0648 39.0385 39.3397 33.3638 2.10361 14.835 0.588946 0.308273 6.35287 -99.6409 81.413 100.35 -0.0181409 3.0077e-005 -0.117315 -0.124139 0.00241113 -0.799296 -79.8382 79.5773 80.5374 -0.000260655 -0.000218567 2.35667e-005 -0.000956238 0.000122995 -2.73258e-005 -66.7416 80.4058 67.2171 -0.000437141 1.488e-005 -2.73243e-005 -0.000136616 -0.000109285 -5.46463e-005 -6.42159 81.2158 8.01779 -0.000218576 1.95771e-005 0.000212293 0.00090157 -0.000191248 -0.000218571 0.000811311 0.56661 89.91 -53.6276 -0.359584 -39.4586 3.17538e-007 3.3108 -9.02334e-010 27.2648 -5.46177 0.0885728 -1.69774e-008 -8.2431 -1.52844e-008 -68.492 -9.09972 3.91579 -37.5711 -2.17311 0.38368 -180 -0.566579 -90.09 -84.1927 -1.19397 -10.8636 7.18184e-007 -5.07541 -3.77207e-008 52.688 0.0406264 -0.0063374 5.15729e-007 -0.0349018 3.30486e-007 -68.0355 -10.4556 4.70852 -35.7101 0.577418 -0.0691765 
92.2102 162.184 -185.302 -2.31424 -37.7217 12.22 -180 4.29621e-031 -90 2.7575 0.893453 0.620809 5.50621 1.81526 1.19813 5.50621 1.81569 1.19809 20.259 -1.93927 -0.872051 -9.43066 -4.55971 6.30686 120.092 75.5343 58.4939 -6.46512 0.0970474 1.4805 -167.277 84.4999 48.8109 -165.437 -8.1153 2.56529 6.89758e-006 12.0373 3.16628e-005 -38.0026 0.51312 0.374979 4.56894e-007 0.189437 3.79101e-007 2.6254 0.0200449 0.874748 -72.0648 39.0385 39.3397 33.3638 2.10362 14.835 0.588947 0.308273 6.35287 -99.6409 81.413 100.35 -0.0181409 2.77884e-005 -0.117315 -0.124139 0.00241113 -0.799296 -79.8382 79.5773 80.5374 -0.000225755 -0.000220913 2.21895e-005 -0.000956197 0.000122908 -2.73275e-005 -66.7416 80.4058 67.2171 -0.00043711 1.59554e-005 -2.73265e-005 -0.000136574 -0.000109278 -5.46494e-005 -6.42159 81.2158 8.01779 -0.000218544 1.69106e-005 0.000212132 0.000901614 -0.000184798 -0.000218577 -59.9282 75.5373 58.5147 16.5071 -1.176 -2.60826 -167.277 84.4999 48.8109 121.049 -1.30173 -65.3498 1.2138e-005 -9.44037 3.47863e-005 -90.5949 7.04283 0.613887 -2.22897e-006 10.1479 8.04075e-007 7.19056 -2.70481 -41.1863 -72.0648 39.0385 39.3397 33.3638 2.10361 14.835 0.588946 0.308273 6.35287 -99.6409 81.413 100.35 -0.0181409 3.0077e-005 -0.117315 -0.124139 0.00241113 -0.799296 -79.8382 79.5773 80.5374 -0.000260655 -0.000218567 2.35667e-005 -0.000956238 0.000122995 -2.73258e-005 -66.7416 80.4058 67.2171 -0.000437141 1.488e-005 -2.73243e-005 -0.000136616 -0.000109285 -5.46463e-005 -6.42159 81.2158 8.01779 -0.000218576 1.95771e-005 0.000212293 0.00090157 -0.000191248 -0.000218571 0.000811311 0.56661 89.91 -54.6666 0.345471 -37.6755 3.17544e-007 3.65326 -9.02662e-010 32.9469 -9.67389 -0.00458993 -1.87185e-008 -14.5728 -1.56293e-008 -68.2774 -2.38554 0.348237 -36.4644 -2.66934 0.388361 -180 -0.566579 -90.09 -85.4273 -1.15847 -7.98687 7.18729e-007 -4.2489 -3.76763e-008 54.7023 -0.163674 -0.00650269 5.17512e-007 -0.344142 3.30492e-007 -70.143 -9.45729 3.87728 -35.823 0.879021 -0.0930688 
